<svg id="Capa_1" data-name="Capa 1" xmlns="http://www.w3.org/2000/svg" viewBox="0 0 284.21 161.68"><defs><style>.cls-1{fill:#218ba9;}.cls-2{fill:#c1ca55;}.cls-3{fill:#fff;}</style></defs><path class="cls-1" d="M75.2,97.09V113c0,19.12-9.56,30.05-28,30.05s-28-10.93-28-30.05V50.81c0-19.12,9.56-30,28-30s28,10.93,28,30.05V62.43H57.44V49.62c0-8.54-3.75-11.78-9.73-11.78S38,41.08,38,49.62v64.54c0,8.54,3.76,11.61,9.73,11.61s9.73-3.07,9.73-11.61V97.09Z"/><path class="cls-1" d="M83,56.07H96.16v83.48H83Z"/><path class="cls-1" d="M133.48,115.34l9-59.27h18.25v83.48H148.27V79.68l-9.06,59.87h-12.4l-9.78-59v59H105.58V56.07h18.25Z"/><path class="cls-1" d="M187.87,55.12c12.76,0,19.32,7.63,19.32,21v2.62h-12.4V75.27c0-6-2.38-8.23-6.56-8.23s-6.56,2.27-6.56,8.23c0,17.17,25.64,20.4,25.64,44.25,0,13.35-6.68,21-19.56,21s-19.55-7.63-19.55-21v-5.13h12.4v6c0,6,2.62,8.11,6.8,8.11s6.8-2.15,6.8-8.11c0-17.17-25.65-20.39-25.65-44.24C168.55,62.75,175.11,55.12,187.87,55.12Z"/><path class="cls-1" d="M260.24,50.45a3,3,0,0,0,.6-.06A2.25,2.25,0,0,0,265,49.22V45.41a2.25,2.25,0,0,0-4.17-1.17,3,3,0,0,0-.6-.06h-8.68a14.55,14.55,0,1,0-18.71.62v.78A2.43,2.43,0,0,0,235.28,48h.83a4.48,4.48,0,0,0,1.17,2.09v4.59H235.6a2.15,2.15,0,0,0-2.13,1.87h-5.38A9.43,9.43,0,0,0,218.66,66v64.14a9.43,9.43,0,0,0,9.43,9.43h27.5a9.43,9.43,0,0,0,9.42-9.43V66a9.42,9.42,0,0,0-9.42-9.42h-5.38a2.16,2.16,0,0,0-2.14-1.87h-1.68V50.45Zm-17.77-5A12.13,12.13,0,1,1,254,32.74,12.13,12.13,0,0,1,242.47,45.49Z"/><rect class="cls-2" x="218.66" y="67.6" width="46.34" height="2.04"/><rect class="cls-2" x="218.66" y="126.47" width="46.34" height="2.03"/><path class="cls-3" d="M249,90.76a10.42,10.42,0,0,0-14.28,0,10,10,0,0,0,0,14.1,10.42,10.42,0,0,0,14.28,0,10,10,0,0,0,0-14.1Zm-3.09,11.42a5.44,5.44,0,0,1-8.07,0,6.59,6.59,0,0,1,0-8.72,5.4,5.4,0,0,1,8.07,0,6.62,6.62,0,0,1,0,8.72Z"/><path class="cls-3" d="M250.7,110.87v-1.43l2.2-2.25a8.41,8.41,0,0,0,.92-1,1.19,1.19,0,0,0,.25-.68.69.69,0,0,0-.2-.52.7.7,0,0,0-.52-.2c-.41,0-.81.31-1.19.92l-.08.12-1.56-.93.08-.12a4.17,4.17,0,0,1,1.17-1.25,2.94,2.94,0,0,1,1.65-.44,2.71,2.71,0,0,1,1.77.64,2.19,2.19,0,0,1,.77,1.76,2.43,2.43,0,0,1-.31,1.16,7.49,7.49,0,0,1-1.09,1.36l-1.09,1.14h2.71v1.76Z"/><path class="cls-2" d="M241.84,22.72a10.65,10.65,0,0,0-10.11,14,.75.75,0,0,0,1.11.4.73.73,0,0,0,.31-.86,9.39,9.39,0,0,1-.45-2.36h1.22V32.82H232.7a9.16,9.16,0,0,1,1-3.53l1.06.61.55-1-1.06-.61a9.13,9.13,0,0,1,2.59-2.59l.61,1.06,1-.55-.61-1.07a9.39,9.39,0,0,1,3.39-.94v1.57h1.4V24.25a9.06,9.06,0,0,1,3.38.94l-.61,1.06,1,.55.61-1.05a9.32,9.32,0,0,1,2.58,2.58l-1.05.61.56,1,1.06-.61a9,9,0,0,1,.92,3.18c0,.12,0,.23,0,.35h-1.22v1.11H251a9,9,0,0,1-.45,2.36.73.73,0,0,0,.31.86h0a.75.75,0,0,0,1.11-.4,10.65,10.65,0,0,0-10.1-14Z"/><path class="cls-1" d="M247.24,28.14a.15.15,0,0,0-.17-.16,6.25,6.25,0,0,0-2.94,1.69l-1.94,1.94a1.71,1.71,0,0,0-.45,0,1.77,1.77,0,0,0-1.25.59,1.81,1.81,0,0,0-.47,1.31,2.5,2.5,0,0,0,0,.29l-1.27.89a.4.4,0,0,0-.05.6L240,36.46a.4.4,0,0,0,.61-.05l.88-1.27a1.57,1.57,0,0,0,.48,0,1.83,1.83,0,0,0,1.72-1.91,2.38,2.38,0,0,0-.05-.26l2-1.94A6.34,6.34,0,0,0,247.24,28.14Z"/><path class="cls-2" d="M82.44,41.22v-1l4.19-.45v1.07c0,2.1,1.08,3.37,2.8,3.37a2.58,2.58,0,0,0,2.8-2.75c0-1.82-.74-3.13-4-6.22-4.32-4.07-5.56-6.3-5.56-9.46,0-4.28,2.47-7.08,6.63-7.08s6.63,2.8,6.63,7.12v.74l-4.2.45v-.82c0-2.23-.87-3.38-2.39-3.38S87,23.73,87,25.54s.91,3.13,4,6.21c4.19,4.2,5.55,6.3,5.55,9.47a7,7,0,1,1-14.07,0Z"/><path class="cls-2" d="M108.9,41.47v-16a6.83,6.83,0,0,1,13.66,0v3.37h-4.28V25.5a2.52,2.52,0,1,0-5,0v16a2.52,2.52,0,1,0,5,0V37.35h4.28v4.12a6.83,6.83,0,0,1-13.66,0Z"/><path class="cls-2" d="M135.4,41.34V25.62a7,7,0,0,1,14,0V41.34a7,7,0,0,1-14,0Zm9.63,0V25.62a2.64,2.64,0,1,0-5.27,0V41.34a2.64,2.64,0,1,0,5.27,0Z"/><path class="cls-2" d="M172.64,47.89,169.47,36h-2.26v11.9h-4.36V19.08h6.83c4.15,0,6.83,2.72,6.83,6.87v3.17a6.55,6.55,0,0,1-3,5.89l3.67,12.88Zm-5.43-16h2.26a2.45,2.45,0,0,0,2.68-2.68V25.87a2.45,2.45,0,0,0-2.68-2.68h-2.26Z"/><path class="cls-2" d="M189.8,19.08h12.39v4.11h-8v8h6.38v4.11h-6.38v8.44h8v4.12H189.8Z"/></svg>