<svg id="Capa_1" data-name="Capa 1" xmlns="http://www.w3.org/2000/svg" viewBox="0 0 210.2 149.35"><defs><style>.cls-1{fill:#218ba9;}.cls-2{fill:#c1ca55;}</style></defs><path class="cls-1" d="M66.8,90.75v15.88c0,19.12-9.56,30.05-28,30.05s-28-10.93-28-30.05V44.48c0-19.13,9.56-30,28-30s28,10.92,28,30.05V56.09H49.05V43.28c0-8.54-3.76-11.78-9.73-11.78s-9.74,3.24-9.74,11.78v64.54c0,8.54,3.76,11.61,9.74,11.61s9.73-3.07,9.73-11.61V90.75Z"/><path class="cls-1" d="M74.64,49.73H87.76v83.48H74.64Z"/><path class="cls-1" d="M125.09,109,134,49.73h18.25v83.48h-12.4V73.34l-9.07,59.87h-12.4l-9.78-59v59H97.18V49.73h18.25Z"/><path class="cls-1" d="M179.48,48.78c12.76,0,19.32,7.63,19.32,21v2.62H186.4V68.93c0-6-2.39-8.22-6.57-8.22s-6.55,2.26-6.55,8.22c0,17.18,25.64,20.4,25.64,44.25,0,13.35-6.68,21-19.56,21s-19.56-7.63-19.56-21v-5.13h12.4v6c0,6,2.63,8.11,6.8,8.11s6.8-2.15,6.8-8.11c0-17.17-25.64-20.39-25.64-44.24C160.16,56.41,166.72,48.78,179.48,48.78Z"/><path class="cls-2" d="M81.47,12.49c4.43,0,6.7,2.65,6.7,7.28v.92h-4.3V19.48c0-2.07-.82-2.85-2.27-2.85s-2.28.78-2.28,2.85c0,6,8.9,7.08,8.9,15.36,0,4.63-2.32,7.28-6.79,7.28s-6.79-2.65-6.79-7.28V33.06H79v2.07c0,2.07.91,2.81,2.36,2.81s2.36-.74,2.36-2.81c0-6-8.9-7.08-8.9-15.36C74.77,15.14,77,12.49,81.47,12.49Z"/><path class="cls-2" d="M104,31v3.85c0,4.63-2.32,7.28-6.79,7.28s-6.79-2.65-6.79-7.28V19.77c0-4.63,2.32-7.28,6.79-7.28S104,15.14,104,19.77v2.82H99.73V19.48c0-2.07-.91-2.85-2.35-2.85S95,17.41,95,19.48V35.13c0,2.07.91,2.81,2.36,2.81s2.35-.74,2.35-2.81V31Z"/><path class="cls-2" d="M106.45,19.77c0-4.63,2.44-7.28,6.91-7.28s6.91,2.65,6.91,7.28V34.84c0,4.63-2.44,7.28-6.91,7.28s-6.91-2.65-6.91-7.28ZM111,35.13c0,2.07.91,2.85,2.36,2.85s2.36-.78,2.36-2.85V19.48c0-2.07-.91-2.85-2.36-2.85s-2.36.78-2.36,2.85Z"/><path class="cls-2" d="M132.74,41.79a8.81,8.81,0,0,1-.42-3.56V33.68c0-2.69-.91-3.68-3-3.68h-1.57V41.79h-4.55v-29h6.87c4.72,0,6.74,2.19,6.74,6.66v2.28c0,3-1,4.92-3,5.88,2.27.95,3,3.14,3,6.17v4.46a8.44,8.44,0,0,0,.5,3.52Zm-5-24.83v8.9h1.78c1.7,0,2.73-.75,2.73-3.06V19.94c0-2.07-.7-3-2.32-3Z"/><path class="cls-2" d="M144.41,25h6.25v4.14h-6.25v8.48h7.87v4.14H139.86v-29h12.42V17h-7.87Z"/><path class="cls-1" d="M162.52,39h-6.16a22.73,22.73,0,0,1,6.12-14.92l4.32,4.4A17,17,0,0,0,162.52,39Z"/><path class="cls-1" d="M180.16,22.85V16.73a22.65,22.65,0,0,1,15,6.12l-4.39,4.35A17.2,17.2,0,0,0,180.16,22.85Z"/><path class="cls-1" d="M202.48,39.05h-6.13A17.26,17.26,0,0,0,192,28.43l4.46-4.26A22.65,22.65,0,0,1,202.48,39.05Z"/><path class="cls-1" d="M163.79,22.8a22.62,22.62,0,0,1,14.91-6.08V22.6a48.41,48.41,0,0,0-5.76,1.62,42.82,42.82,0,0,0-5,2.8Z"/><path class="cls-1" d="M186,28.89c-.66,2.3-1.29,4.6-2,6.89-.54,1.77-1.06,3.55-1.76,5.26A3,3,0,0,1,178,42.5c-1.58-.84-2.31-3-1.14-4.31,2.81-3.28,5.83-6.37,8.77-9.53Z"/></svg>